3100 0 2 0           
34 SPATIAL - INTEROP Version - 31.0.1 14 ACIS 31.0.1 NT 24 Sun Dec 18 11:54:06 2022 
1 9.9999999999999995e-07 1e-10 
T @77 Z_YVV5QJXWXCAXJ7_RTJ8YY926VV9N8DWCQFPT6EYCTVJ46EBBSUS67CBBTBRMQXA8RKRZQEUCRCF 
body $2 -1 -1 $-1 0 $3 $-1 $4 F #
collection $5 -1 0 0 0 0 0 0 0 1 1 0 1 1 #
string_attrib-name_attrib-gen-attrib $-1 -1 $-1 $-1 $0 2 1 1 1 1 1 1 1 1 1 1 1 1 1 0 1 1 1 @17 ATTRIB_XACIS_NAME @30 GA5000-Flatbrush|brush-2#brush #
lump $-1 -1 -1 $-1 $-1 $9 $0 F #
transform $-1 -1 1 0 0 0 1 0 0 0 1 0 0 0 1 no_rotate no_reflect no_shear #
string_attrib-name_attrib-gen-attrib $-1 -1 $10 $-1 $1 2 1 1 1 1 1 1 1 1 1 1 1 1 1 0 1 1 1 @17 ATTRIB_XACIS_NAME @33 GA5000-Flatbrush;GA5000-Flatbrush #
collection $11 -1 0 0 0 0 0 0 0 1 1 0 1 1 #
collection $12 -1 0 0 0 0 0 0 0 1 1 0 1 1 #
collection $13 -1 0 0 0 0 0 0 0 1 1 0 1 1 #
shell $-1 -1 -1 $-1 $-1 $-1 $14 $-1 $3 F #
integer_attrib-name_attrib-gen-attrib $-1 -1 $-1 $5 $1 2 1 1 1 1 1 1 1 1 1 1 1 1 1 0 1 1 1 @23 ATTRIB_XACIS_GROUP_TYPE 5 #
group_ptr-ct-attrib $-1 -1 $15 $-1 $6 1 1 1 1 1 1 1 1 1 1 1 1 0 1 0 1 1 1 $1 #
group_ptr-ct-attrib $-1 -1 $16 $-1 $7 1 1 1 1 1 1 1 1 1 1 1 1 0 1 0 1 1 1 $1 #
group_ptr-ct-attrib $-1 -1 $17 $-1 $8 1 1 1 1 1 1 1 1 1 1 1 1 0 1 0 1 1 1 $1 #
face $18 -1 -1 $-1 $19 $20 $9 $-1 $21 forward single F F #
integer_attrib-name_attrib-gen-attrib $-1 -1 $22 $11 $6 2 1 1 1 1 1 1 1 1 1 1 1 1 1 0 1 1 1 @19 SPAATTRIB_VALUETYPE 1 #
integer_attrib-name_attrib-gen-attrib $-1 -1 $23 $12 $7 2 1 1 1 1 1 1 1 1 1 1 1 1 1 0 1 1 1 @19 SPAATTRIB_VALUETYPE 1 #
integer_attrib-name_attrib-gen-attrib $-1 -1 $24 $13 $8 2 1 1 1 1 1 1 1 1 1 1 1 1 1 0 1 1 1 @19 SPAATTRIB_VALUETYPE 1 #
string_attrib-name_attrib-gen-attrib $-1 -1 $25 $-1 $14 2 1 1 1 1 1 1 1 1 1 1 1 1 1 0 1 1 1 @15 ATTRIB_XACIS_ID @3 2_8 #
face $26 -1 -1 $-1 $-1 $27 $9 $-1 $28 forward single F F #
loop $-1 -1 -1 $-1 $-1 $29 $14 F unknown #
plane-surface $-1 -1 -1 $-1 -0.89959593894216039 40.471817584831967 732.58705694057358 1.04744440165294e-14 0 1 1 0 -1.04744440165294e-14 forward_v I I I I #
string_attrib-name_attrib-gen-attrib $-1 -1 $30 $15 $6 2 1 1 1 1 1 1 1 1 1 1 1 1 1 0 1 1 1 @15 SPAATTRIB_VALUE @9 Assembly1 #
string_attrib-name_attrib-gen-attrib $-1 -1 $31 $16 $7 2 1 1 1 1 1 1 1 1 1 1 1 1 1 0 1 1 1 @15 SPAATTRIB_VALUE @9 Assembly1 #
string_attrib-name_attrib-gen-attrib $-1 -1 $32 $17 $8 2 1 1 1 1 1 1 1 1 1 1 1 1 1 0 1 1 1 @15 SPAATTRIB_VALUE @9 Assembly1 #
render-rbase-attrib $-1 -1 $33 $18 $14 1 1 1 1 1 1 1 1 1 1 1 1 0 1 0 1 1 1 $34 $-1 0 2 1.04744440165294e-14 0 1 0 1 0 -1 0 1.04744440165294e-14 -0.89959593894216039 40.471817584831967 732.58705694057358 1 rotate no_reflect no_shear #
string_attrib-name_attrib-gen-attrib $-1 -1 $35 $-1 $19 2 1 1 1 1 1 1 1 1 1 1 1 1 1 0 1 1 1 @15 ATTRIB_XACIS_ID @4 2_24 #
loop $-1 -1 -1 $-1 $36 $37 $19 F unknown #
spline-surface $-1 -1 -1 $-1 forward { exactsur 0 full nubs 3 1 periodic open none low 57 2 
	0 3 0.03125 2 0.0625 2 0.078125000000000014 2 0.093750000000000028 2 
	0.10937500000000004 2 0.12500000000000006 2 0.14062500000000006 2 0.15625000000000006 2 0.17187500000000006 2 
	0.18750000000000008 2 0.20312500000000008 2 0.21875000000000008 2 0.23437500000000008 2 0.25000000000000011 2 
	0.26562500000000011 2 0.28125000000000011 2 0.29687500000000011 2 0.31250000000000011 2 0.32812500000000011 2 
	0.34375000000000011 2 0.35937500000000011 2 0.37500000000000011 2 0.39062500000000011 2 0.40625000000000011 2 
	0.42187500000000011 2 0.43750000000000011 2 0.46875000000000011 2 0.50000000000000011 2 0.53125000000000011 2 
	0.56250000000000011 2 0.57812500000000011 2 0.59375000000000011 2 0.60937500000000011 2 0.62500000000000011 2 
	0.64062500000000011 2 0.65625000000000011 2 0.67187500000000011 2 0.68750000000000011 2 0.70312500000000011 2 
	0.71875000000000011 2 0.73437500000000011 2 0.75000000000000011 2 0.76562500000000011 2 0.78125000000000011 2 
	0.79687500000000011 2 0.81250000000000011 2 0.82812500000000011 2 0.84375000000000011 2 0.85937500000000011 2 
	0.87500000000000011 2 0.89062500000000011 2 0.90625000000000011 2 0.92187500000000011 2 0.93750000000000011 2 
	0.96875000000000011 2 1 3 
	0 1 1 1 
	-0.89959593894635015 40.471817584831967 332.58705694057358 
	-0.89959593894635015 40.471817584831967 332.58705694057358 
	-0.89959593894635015 40.471817584831967 332.58705694057358 
	-0.89959593894635015 40.471817584831967 332.58705694057358 
	-0.89959593894635015 40.471817584831967 332.58705694057358 
	-0.89959593894635015 40.471817584831967 332.58705694057358 
	-0.89959593894635015 40.471817584831967 332.58705694057358 
	-0.89959593894635015 40.471817584831967 332.58705694057358 
	-0.89959593894635015 40.471817584831967 332.58705694057358 
	-0.89959593894635015 40.471817584831967 332.58705694057358 
	-0.89959593894635015 40.471817584831967 332.58705694057358 
	-0.89959593894635015 40.471817584831967 332.58705694057358 
	-0.89959593894635015 40.471817584831967 332.58705694057358 
	-0.89959593894635015 40.471817584831967 332.58705694057358 
	-0.89959593894635015 40.471817584831967 332.58705694057358 
	-0.89959593894635015 40.471817584831967 332.58705694057358 
	-0.89959593894635015 40.471817584831967 332.58705694057358 
	-0.89959593894635015 40.471817584831967 332.58705694057358 
	-0.89959593894635015 40.471817584831967 332.58705694057358 
	-0.89959593894635015 40.471817584831967 332.58705694057358 
	-0.89959593894635015 40.471817584831967 332.58705694057358 
	-0.89959593894635015 40.471817584831967 332.58705694057358 
	-0.89959593894635015 40.471817584831967 332.58705694057358 
	-0.89959593894635015 40.471817584831967 332.58705694057358 
	-0.89959593894635015 40.471817584831967 332.58705694057358 
	-0.89959593894635015 40.471817584831967 332.58705694057358 
	-0.89959593894635015 40.471817584831967 332.58705694057358 
	-0.89959593894635015 40.471817584831967 332.58705694057358 
	-0.89959593894635015 40.471817584831967 332.58705694057358 
	-0.89959593894635015 40.471817584831967 332.58705694057358 
	-0.89959593894635015 40.471817584831967 332.58705694057358 
	-0.89959593894635015 40.471817584831967 332.58705694057358 
	-0.89959593894635015 40.471817584831967 332.58705694057358 
	-0.89959593894635015 40.471817584831967 332.58705694057358 
	-0.89959593894635015 40.471817584831967 332.58705694057358 
	-0.89959593894635015 40.471817584831967 332.58705694057358 
	-0.89959593894635015 40.471817584831967 332.58705694057358 
	-0.89959593894635015 40.471817584831967 332.58705694057358 
	-0.89959593894635015 40.471817584831967 332.58705694057358 
	-0.89959593894635015 40.471817584831967 332.58705694057358 
	-0.89959593894635015 40.471817584831967 332.58705694057358 
	-0.89959593894635015 40.471817584831967 332.58705694057358 
	-0.89959593894635015 40.471817584831967 332.58705694057358 
	-0.89959593894635015 40.471817584831967 332.58705694057358 
	-0.89959593894635015 40.471817584831967 332.58705694057358 
	-0.89959593894635015 40.471817584831967 332.58705694057358 
	-0.89959593894635015 40.471817584831967 332.58705694057358 
	-0.89959593894635015 40.471817584831967 332.58705694057358 
	-0.89959593894635015 40.471817584831967 332.58705694057358 
	-0.89959593894635015 40.471817584831967 332.58705694057358 
	-0.89959593894635015 40.471817584831967 332.58705694057358 
	-0.89959593894635015 40.471817584831967 332.58705694057358 
	-0.89959593894635015 40.471817584831967 332.58705694057358 
	-0.89959593894635015 40.471817584831967 332.58705694057358 
	-0.89959593894635015 40.471817584831967 332.58705694057358 
	-0.89959593894635015 40.471817584831967 332.58705694057358 
	-0.89959593894635015 40.471817584831967 332.58705694057358 
	-0.89959593894635015 40.471817584831967 332.58705694057358 
	-0.89959593894635015 40.471817584831967 332.58705694057358 
	-0.89959593894635015 40.471817584831967 332.58705694057358 
	-0.89959593894635015 40.471817584831967 332.58705694057358 
	-0.89959593894635015 40.471817584831967 332.58705694057358 
	-0.89959593894635015 40.471817584831967 332.58705694057358 
	-0.89959593894635015 40.471817584831967 332.58705694057358 
	-0.89959593894635015 40.471817584831967 332.58705694057358 
	-0.89959593894635015 40.471817584831967 332.58705694057358 
	-0.89959593894635015 40.471817584831967 332.58705694057358 
	-0.89959593894635015 40.471817584831967 332.58705694057358 
	-0.89959593894635015 40.471817584831967 332.58705694057358 
	-0.89959593894635015 40.471817584831967 332.58705694057358 
	-0.89959593894635015 40.471817584831967 332.58705694057358 
	-0.89959593894635015 40.471817584831967 332.58705694057358 
	-0.89959593894635015 40.471817584831967 332.58705694057358 
	-0.89959593894635015 40.471817584831967 332.58705694057358 
	-0.89959593894635015 40.471817584831967 332.58705694057358 
	-0.89959593894635015 40.471817584831967 332.58705694057358 
	-0.89959593894635015 40.471817584831967 332.58705694057358 
	-0.89959593894635015 40.471817584831967 332.58705694057358 
	-0.89959593894635015 40.471817584831967 332.58705694057358 
	-0.89959593894635015 40.471817584831967 332.58705694057358 
	-0.89959593894635015 40.471817584831967 332.58705694057358 
	-0.89959593894635015 40.471817584831967 332.58705694057358 
	-0.89959593894635015 40.471817584831967 332.58705694057358 
	-0.89959593894635015 40.471817584831967 332.58705694057358 
	-0.89959593894635015 40.471817584831967 332.58705694057358 
	-0.89959593894635015 40.471817584831967 332.58705694057358 
	-0.89959593894635015 40.471817584831967 332.58705694057358 
	-0.89959593894635015 40.471817584831967 332.58705694057358 
	-0.89959593894635015 40.471817584831967 332.58705694057358 
	-0.89959593894635015 40.471817584831967 332.58705694057358 
	-0.89959593894635015 40.471817584831967 332.58705694057358 
	-0.89959593894635015 40.471817584831967 332.58705694057358 
	-0.89959593894635015 40.471817584831967 332.58705694057358 
	-0.89959593894635015 40.471817584831967 332.58705694057358 
	-0.89959593894635015 40.471817584831967 332.58705694057358 
	-0.89959593894635015 40.471817584831967 332.58705694057358 
	-0.89959593894635015 40.471817584831967 332.58705694057358 
	-0.89959593894635015 40.471817584831967 332.58705694057358 
	-0.89959593894635015 40.471817584831967 332.58705694057358 
	-0.89959593894635015 40.471817584831967 332.58705694057358 
	-0.89959593894635015 40.471817584831967 332.58705694057358 
	-0.89959593894635015 40.471817584831967 332.58705694057358 
	-0.89959593894635015 40.471817584831967 332.58705694057358 
	-0.89959593894635015 40.471817584831967 332.58705694057358 
	-0.89959593894635015 40.471817584831967 332.58705694057358 
	-0.89959593894635015 40.471817584831967 332.58705694057358 
	-0.89959593894635015 40.471817584831967 332.58705694057358 
	-0.89959593894635015 40.471817584831967 332.58705694057358 
	-0.89959593894635015 40.471817584831967 332.58705694057358 
	-0.89959593894635015 40.471817584831967 332.58705694057358 
	-0.89959593894635015 40.471817584831967 332.58705694057358 
	-0.89959593894635015 40.471817584831967 332.58705694057358 
	-0.89959593894635015 40.471817584831967 332.58705694057358 
	-0.89959593894635015 40.471817584831967 332.58705694057358 
	-100.89959593894218 40.471817584832017 732.5870569405746 
	-100.89959593894218 35.567132816216585 732.5870569405746 
	-100.74195377820722 30.288852244073627 732.5870569405746 
	-99.933481149568223 18.89726588928189 732.5870569405746 
	-99.283336368824195 12.78212865724452 732.5870569405746 
	-97.7472782238207 2.9550957979941472 732.5870569405746 
	-97.141103229021539 -0.42906202805333749 732.5870569405746 
	-95.699706621304514 -7.4077930890633823 732.5870569405746 
	-94.86447965583217 -11.002501593980881 732.5870569405746 
	-92.918176274622255 -18.384457238038749 732.58705694057448 
	-91.80706691719675 -22.17187095097897 732.58705694057448 
	-89.256632231859555 -29.905289147818195 732.58705694057448 
	-87.817230830153562 -33.851485169523954 732.58705694057448 
	-84.553852436038184 -41.847042578350852 732.58705694057448 
	-82.729737728079428 -45.89660149991488 732.58705694057448 
	-78.639712830756693 -54.016054968593849 732.58705694057437 
	-76.373585470512083 -58.086114732505735 732.58705694057437 
	-71.346712959130969 -66.130721415036433 732.58705694057426 
	-68.585661965239467 -70.105338148617321 732.58705694057426 
	-62.528341714971688 -77.806393145321252 732.58705694057426 
	-59.23169025306774 -81.532719233589333 732.58705694057414 
	-52.085189861803144 -88.547988872969484 732.58705694057414 
	-48.234931962970215 -91.836544332048277 732.58705694057403 
	-39.99796787167638 -97.757676980336441 732.58705694057403 
	-35.610923486492219 -100.38952719320679 732.58705694057392 
	-26.363500804585289 -104.76580330992027 732.5870569405738 
	-21.502991926790539 -106.50918863367704 732.5870569405738 
	-11.42570843162682 -108.89097287369589 732.58705694057369 
	-6.2091454605148675 -109.52818241516795 732.58705694057358 
	4.4099535826304059 -109.52818241516795 732.58705694057358 
	9.6265165537423556 -108.89097287369589 732.58705694057346 
	19.703800048906107 -106.50918863367696 732.58705694057335 
	24.564308926700836 -104.76580330992041 732.58705694057335 
	33.811731608607765 -100.38952719320685 732.58705694057323 
	38.198775993791948 -97.757676980336527 732.58705694057312 
	46.435740085085762 -91.836544332048248 732.58705694057312 
	50.285997983918698 -88.547988872969654 732.58705694057301 
	57.4324983751833 -81.532719233589418 732.58705694057301 
	60.729149837087228 -77.806393145321351 732.58705694057289 
	66.786470087355042 -70.105338148617335 732.58705694057289 
	69.547521081246543 -66.130721415036504 732.58705694057289 
	74.574393592627686 -58.086114732505862 732.58705694057278 
	76.840520952872311 -54.016054968593977 732.58705694057278 
	80.930545850195088 -45.896601499914979 732.58705694057267 
	82.754660558153773 -41.84704257835098 732.58705694057267 
	86.018038952269194 -33.851485169524068 732.58705694057267 
	87.457440353975173 -29.905289147818294 732.58705694057267 
	90.007875039312353 -22.171870950979098 732.58705694057267 
	91.118984396737844 -18.384457238038884 732.58705694057267 
	93.065287777947844 -11.002501593981002 732.58705694057255 
	93.900514743420203 -7.4077930890635244 732.58705694057255 
	95.341911351137213 -0.42906202805343696 732.58705694057255 
	95.948086345936417 2.9550957979940549 732.58705694057255 
	97.484144490939869 12.782128657244403 732.58705694057255 
	98.134289271683926 18.897265889281805 732.58705694057255 
	98.942761900322921 30.288852244073517 732.58705694057255 
	99.100404061057858 35.567132816216471 732.58705694057255 
	99.10040406105783 45.376502353447343 732.58705694057255 
	98.942761900322935 50.654782925590297 732.58705694057255 
	98.134289271683954 62.046369280382052 732.58705694057255 
	97.484144490939997 68.161506512419393 732.58705694057255 
	95.948086345936431 77.988539371669773 732.58705694057255 
	95.341911351137242 81.372697197717258 732.58705694057255 
	93.900514743420203 88.35142825872731 732.58705694057255 
	93.065287777947873 91.946136763644802 732.58705694057255 
	91.118984396737957 99.328092407702712 732.58705694057267 
	90.007875039312424 103.11550612064291 732.58705694057267 
	87.45744035397523 110.84892431748209 732.58705694057267 
	86.018038952269293 114.79512033918787 732.58705694057267 
	82.754660558153844 122.79067774801483 732.58705694057267 
	80.930545850195145 126.8402366695788 732.58705694057267 
	76.840520952872367 134.95969013825783 732.58705694057278 
	74.574393592627786 139.02974990216967 732.58705694057278 
	69.547521081246657 147.07435658470035 732.58705694057289 
	66.786470087355156 151.04897331828118 732.58705694057289 
	60.729149837087355 158.75002831498517 732.58705694057289 
	57.432498375183386 162.47635440325325 732.58705694057301 
	50.285997983918811 169.49162404263342 732.58705694057301 
	46.435740085085868 172.78017950171215 732.58705694057312 
	38.198775993792047 178.70131215000032 732.58705694057312 
	33.811731608607893 181.33316236287072 732.58705694057323 
	24.564308926700956 185.70943847958421 732.58705694057335 
	19.703800048906231 187.45282380334092 732.58705694057335 
	9.6265165537424835 189.83460804335982 732.58705694057346 
	4.4099535826305232 190.47181758483188 732.58705694057358 
	-6.2091454605147351 190.47181758483191 732.58705694057358 
	-11.425708431626694 189.83460804335982 732.58705694057369 
	-21.502991926790443 187.45282380334092 732.5870569405738 
	-26.363500804585176 185.70943847958435 732.5870569405738 
	-35.610923486492098 181.33316236287078 732.58705694057392 
	-39.997967871676281 178.70131215000046 732.58705694057403 
	-48.234931962970116 172.78017950171227 732.58705694057403 
	-52.08518986180303 169.49162404263359 732.58705694057414 
	-59.231690253067619 162.47635440325337 732.58705694057414 
	-62.528341714971553 158.75002831498529 732.58705694057426 
	-68.585661965239396 151.04897331828127 732.58705694057426 
	-71.346712959130869 147.07435658470044 732.58705694057426 
	-76.373585470511998 139.02974990216978 732.58705694057437 
	-78.639712830756636 134.95969013825791 732.58705694057437 
	-82.7297377280794 126.8402366695789 732.58705694057448 
	-84.553852436038127 122.79067774801489 732.58705694057448 
	-87.817230830153576 114.795120339188 732.58705694057448 
	-89.256632231859498 110.8489243174822 732.58705694057448 
	-91.807066917196707 103.11550612064299 732.58705694057448 
	-92.918176274622198 99.328092407702798 732.58705694057448 
	-94.86447965583217 91.946136763644915 732.5870569405746 
	-95.699706621304514 88.351428258727452 732.5870569405746 
	-97.141103229021496 81.372697197717358 732.5870569405746 
	-97.747278223820729 77.988539371669901 732.5870569405746 
	-99.283336368824209 68.161506512419464 732.5870569405746 
	-99.933481149568266 62.046369280382137 732.5870569405746 
	-100.74195377820725 50.654782925590453 732.5870569405746 
	-100.89959593894218 45.376502353447435 732.5870569405746 
	-100.89959593894218 40.471817584832017 732.5870569405746 
	0 
	0 
	52 0.03125 0.0625 0.078125000000000014 0.093750000000000028 0.10937500000000004 0.12500000000000006 0.14062500000000006 0.15625000000000006 0.17187500000000006 0.18750000000000008 0.20312500000000008 0.21875000000000008 0.23437500000000008 0.26562500000000011 0.28125000000000011 0.29687500000000011 0.31250000000000011 0.32812500000000011 0.34375000000000011 0.35937500000000011 0.37500000000000011 0.39062500000000011 0.40625000000000011 0.42187500000000011 0.43750000000000011 0.46875000000000011 0.53125000000000011 0.56250000000000011 0.57812500000000011 0.59375000000000011 0.60937500000000011 0.62500000000000011 0.64062500000000011 0.65625000000000011 0.67187500000000011 0.68750000000000011 0.70312500000000011 0.71875000000000011 0.73437500000000011 0.76562500000000011 0.78125000000000011 0.79687500000000011 0.81250000000000011 0.82812500000000011 0.84375000000000011 0.85937500000000011 0.87500000000000011 0.89062500000000011 0.90625000000000011 0.92187500000000011 0.93750000000000011 0.96875000000000011 
	4 0 0.25000000000000011 0.50000000000000011 0.75000000000000011 
	0 
	0 
	0 
	F 1 F 0 F 1 F 0 } I I I I #
tcoedge-coedge $-1 -1 -1 $-1 $29 $29 $38 $39 forward $20 $40 0 6.2831853071795862 F #
string_attrib-name_attrib-gen-attrib $-1 -1 $-1 $22 $6 2 1 1 1 1 1 1 1 1 1 1 1 1 1 0 1 1 1 @17 ATTRIB_XACIS_NAME @10 Definition #
string_attrib-name_attrib-gen-attrib $-1 -1 $-1 $23 $7 2 1 1 1 1 1 1 1 1 1 1 1 1 1 0 1 1 1 @17 ATTRIB_XACIS_NAME @11 Part Number #
string_attrib-name_attrib-gen-attrib $-1 -1 $-1 $24 $8 2 1 1 1 1 1 1 1 1 1 1 1 1 1 0 1 1 1 @17 ATTRIB_XACIS_NAME @12 Nomenclature #
rgb_color-st-attrib $-1 -1 $-1 $25 $14 2 1 2 1 1 1 1 1 1 1 1 1 1 1 0 1 1 1 0.50196081399917603 1 0.50196081399917603 #
rh_material-rh_entity $-1 -1 4 4 @5 plain @5 color -4 1 1 1 @5 phong @14 ambient factor -2 1 @14 diffuse factor -2 0.75 @15 specular factor -2 0.5 @8 exponent -2 10 @14 specular color -4 1 1 1 @4 none @5 plain @5 color -4 0.75 0.75 0.75 #
render-rbase-attrib $-1 -1 $41 $26 $19 1 1 1 1 1 1 1 1 1 1 1 1 0 1 0 1 1 1 $42 $-1 0 2 1.04744440165294e-14 0 1 0 1 0 -1 0 1.04744440165294e-14 -0.89959593894216039 40.471817584831967 732.58705694057358 1 rotate no_reflect no_shear #
loop $-1 -1 -1 $-1 $-1 $38 $19 F unknown #
coedge $-1 -1 -1 $-1 $37 $37 $-1 $43 forward $27 $-1 #
tcoedge-coedge $-1 -1 -1 $-1 $38 $38 $29 $39 reversed $36 $44 -6.2831853071795862 -0 F #
tedge-edge $-1 -1 -1 $-1 $45 0 $45 6.2831853071795862 $29 $46 forward @7 unknown F 0.00075724831091725003 #
pcurve $-1 -1 -1 $-1 0 forward { exppc 1 nurbs 2 periodic 5 
	0 2 1.5707963267948961 2 3.1415926535897927 2 4.7123889803846897 2 6.2831853071795862 2 
	4.9671099712414934e-14 150 1 
	-99.999999999999943 150.00000000000003 0.70710678118654724 
	-100 4.2298917468548434e-14 1 
	-100.00000000000006 -149.99999999999994 0.70710678118654691 
	-6.1917567703888462e-14 -150 1 
	99.999999999999929 -150.00000000000006 0.70710678118654779 
	100 -6.0668619455758731e-14 1 
	100.00000000000007 149.99999999999994 0.70710678118654691 
	7.4164035695361989e-14 150 1 
	1e-08 
	-1 
	plane -0.89959593894216039 40.471817584831967 732.58705694057358 1.04744440165294e-14 0 1 1 0 -1.04744440165294e-14 forward_v I I I I 
	} 0 0 #
rgb_color-st-attrib $-1 -1 $-1 $35 $19 2 1 2 1 1 1 1 1 1 1 1 1 1 1 0 1 1 1 0.50196081399917603 1 0.50196081399917603 #
rh_material-rh_entity $-1 -1 4 4 @5 plain @5 color -4 1 1 1 @5 phong @14 ambient factor -2 1 @14 diffuse factor -2 0.75 @15 specular factor -2 0.5 @8 exponent -2 10 @14 specular color -4 1 1 1 @4 none @5 plain @5 color -4 0.75 0.75 0.75 #
edge $-1 -1 -1 $-1 $47 1 $47 0 $37 $-1 forward @7 unknown F #
pcurve $-1 -1 -1 $-1 0 forward { exppc 2 nubs 1 periodic 2 
	-6.2831853071795862 1 -0 1 
	0.75000000000000011 1 
	-0.24999999999999989 1 
	0.001 
	-1 
	spline forward { ref 0 } I I I I 
	} 0 0 #
tvertex-vertex $-1 -1 -1 $-1 $39 $48 5.7021876357919265e-14 #
ellipse-curve $-1 -1 -1 $-1 -0.89959593894216039 40.471817584831967 732.58705694057358 1.04744440165294e-14 0 1 4.9671099712414934e-14 150 -5.202771531771398e-28 0.66666666666666663 I I #
vertex $-1 -1 -1 $-1 $43 $49 #
point $-1 -1 -1 $-1 -0.89959593894211076 190.47181758483197 732.58705694057358 #
point $-1 -1 -1 $-1 -0.89959593894635015 40.471817584831967 332.58705694057358 #
End-of-ACIS-data 